<svg xmlns="http://www.w3.org/2000/svg" viewBox="0 0 1920 1080"><defs><style>.cls-1{fill:#000018;}.cls-2{fill:#fff;}.cls-3{fill:#b2b2b2;}</style></defs><title>Asset 1</title><g id="Layer_2" data-name="Layer 2"><g id="Layer_1-2" data-name="Layer 1"><rect class="cls-1" width="1920" height="1080"/><circle class="cls-2" cx="62.5" cy="70.5" r="3.5"/><circle class="cls-2" cx="215.5" cy="226.5" r="2.5"/><circle class="cls-2" cx="373.5" cy="130.5" r="1.5"/><circle class="cls-2" cx="674" cy="96" r="4"/><circle class="cls-2" cx="438" cy="443" r="2"/><circle class="cls-2" cx="170.5" cy="539.5" r="3.5"/><circle class="cls-2" cx="439.5" cy="658.5" r="3.5"/><circle class="cls-2" cx="281.5" cy="805.5" r="2.5"/><circle class="cls-2" cx="120" cy="915" r="2"/><circle class="cls-2" cx="485" cy="944" r="3"/><circle class="cls-2" cx="1057.5" cy="210.5" r="3.5"/><circle class="cls-2" cx="868" cy="250" r="2"/><circle class="cls-2" cx="1423.5" cy="68.5" r="2.5"/><circle class="cls-2" cx="1562.5" cy="173.5" r="2.5"/><circle class="cls-2" cx="1692.5" cy="417.5" r="3.5"/><circle class="cls-2" cx="1739" cy="125" r="4"/><circle class="cls-2" cx="1425" cy="633" r="4"/><circle class="cls-2" cx="1654" cy="665" r="7"/><circle class="cls-2" cx="1517" cy="399" r="2"/><circle class="cls-2" cx="1792" cy="709" r="7"/><circle class="cls-2" cx="1599.5" cy="922.5" r="3.5"/><circle class="cls-2" cx="1483" cy="848" r="2"/><circle class="cls-2" cx="1824.5" cy="960.5" r="2.5"/><circle class="cls-2" cx="1157" cy="977" r="3"/><circle class="cls-3" cx="645.5" cy="476.5" r="5.5"/><circle class="cls-3" cx="809" cy="443" r="2"/><circle class="cls-3" cx="1191" cy="375" r="3"/><circle class="cls-3" cx="1126.5" cy="539.5" r="3.5"/><circle class="cls-3" cx="808" cy="589" r="1"/><circle class="cls-3" cx="791.5" cy="640.5" r="1.5"/><circle class="cls-3" cx="832.5" cy="664.5" r="9.5"/><circle class="cls-3" cx="1042.5" cy="665.5" r="3.5"/><circle class="cls-3" cx="844.5" cy="751.5" r="2.5"/><circle class="cls-3" cx="1050" cy="758" r="4"/><circle class="cls-3" cx="1295.5" cy="665.5" r="3.5"/></g></g></svg>