<svg id="Layer_1" data-name="Layer 1" xmlns="http://www.w3.org/2000/svg" viewBox="0 0 400.25 40.491"><defs><style>.cls-1{fill:#fff;stroke:#000;stroke-miterlimit:10;stroke-width:0.25px;}</style></defs><title>foreground_planet</title><path class="cls-1" d="M0,100H400V63c-39,6-26,49-98,27s-85-13-107-9c-4,1-6.585,3.084-12.961,2.135A21.655,21.655,0,0,1,171,78a63.4,63.4,0,0,1-31.875,6.25A63.168,63.168,0,0,1,112,76a16.94,16.94,0,0,1-6.129,7.083C100.619,86.358,106,83,92,85c-55-2-53.051-2.235-69.041-13.939C14.016,64.515,13.807,58.466,0,60Z" transform="translate(0.125 -59.634)"/></svg>